<svg xmlns="http://www.w3.org/2000/svg" width="1100" height="520" viewBox="0 0 1100 520">
  <style>
    text { font-family: Arial, sans-serif; fill: #172033; }
    .title { font-size: 20px; font-weight: 700; text-anchor: middle; }
    .label { font-size: 14px; text-anchor: middle; }
    .value { font-size: 13px; font-weight: 700; text-anchor: middle; }
    .axis { font-size: 12px; text-anchor: end; }
  </style>
  <rect width="1100" height="520" fill="white"/>
  <text class="title" x="550" y="32">Production hiện tại và các baseline lịch sử (không so sánh trực tiếp)</text>
  <line x1="85" y1="430" x2="1050" y2="430" stroke="#667085"/>
  <line x1="85" y1="70" x2="85" y2="430" stroke="#667085"/>
  <g stroke="#e5e7eb">
    <line x1="85" y1="340" x2="1050" y2="340"/>
    <line x1="85" y1="250" x2="1050" y2="250"/>
    <line x1="85" y1="160" x2="1050" y2="160"/>
    <line x1="85" y1="70" x2="1050" y2="70"/>
  </g>
  <g>
    <text class="axis" x="75" y="434">0,0</text>
    <text class="axis" x="75" y="344">0,2</text>
    <text class="axis" x="75" y="254">0,4</text>
    <text class="axis" x="75" y="164">0,6</text>
    <text class="axis" x="75" y="74">0,8</text>
  </g>

  <g>
    <rect x="155" y="144.25" width="58" height="285.75" fill="#2563eb"/>
    <rect x="218" y="127.6" width="58" height="302.4" fill="#f59e0b"/>
    <text class="value" x="184" y="137">0,635</text>
    <text class="value" x="247" y="120">0,672</text>
    <text class="label" x="215" y="457">IDF-weighted</text>
    <text class="label" x="215" y="476">(đang sử dụng)</text>
  </g>
  <g>
    <rect x="390" y="128.5" width="58" height="301.5" fill="#2563eb"/>
    <rect x="453" y="104.65" width="58" height="325.35" fill="#f59e0b"/>
    <text class="value" x="419" y="121">0,670</text>
    <text class="value" x="482" y="97">0,723</text>
    <text class="label" x="450" y="457">Overlap</text>
  </g>
  <g>
    <rect x="625" y="142" width="58" height="288" fill="#2563eb"/>
    <rect x="688" y="115.45" width="58" height="314.55" fill="#f59e0b"/>
    <text class="value" x="654" y="135">0,640</text>
    <text class="value" x="717" y="108">0,699</text>
    <text class="label" x="685" y="457">Weighted Jaccard</text>
  </g>
  <g>
    <rect x="860" y="164.5" width="58" height="265.5" fill="#2563eb"/>
    <rect x="923" y="134.35" width="58" height="295.65" fill="#f59e0b"/>
    <text class="value" x="889" y="157">0,590</text>
    <text class="value" x="952" y="127">0,657</text>
    <text class="label" x="920" y="457">Hybrid</text>
  </g>
  <rect x="835" y="45" width="16" height="16" fill="#2563eb"/>
  <text x="858" y="58" font-size="13">P@10</text>
  <rect x="915" y="45" width="16" height="16" fill="#f59e0b"/>
  <text x="938" y="58" font-size="13">NDCG@10</text>
</svg>
