<svg xmlns="http://www.w3.org/2000/svg" width="920" height="430" viewBox="0 0 920 430">
<rect width="100%" height="100%" fill="white"/>
<style>text{font-family:Arial,sans-serif;fill:#172033}.axis{font-size:12px}.title{font-size:17px;font-weight:bold}</style>
<text class="title" x="460" y="26" text-anchor="middle">Same-snapshot query latency (100 iterations)</text>
<line x1="70" y1="365" x2="890" y2="365" stroke="#667085"/>
<rect x="85.0" y="262.2" width="32" height="102.8" fill="#2563eb"/>
<text class="axis" x="101.0" y="257.2" text-anchor="middle">16.56</text>
<rect x="123.0" y="354.8" width="32" height="10.2" fill="#f59e0b"/>
<text class="axis" x="139.0" y="349.8" text-anchor="middle">1.64</text>
<text class="axis" x="120.0" y="389" text-anchor="middle">movies_by_director</text>
<rect x="285.0" y="65.0" width="32" height="300.0" fill="#2563eb"/>
<text class="axis" x="301.0" y="60.0" text-anchor="middle">48.33</text>
<rect x="323.0" y="283.9" width="32" height="81.1" fill="#f59e0b"/>
<text class="axis" x="339.0" y="278.9" text-anchor="middle">13.07</text>
<text class="axis" x="320.0" y="389" text-anchor="middle">common_movies</text>
<rect x="485.0" y="333.4" width="32" height="31.6" fill="#2563eb"/>
<text class="axis" x="501.0" y="328.4" text-anchor="middle">5.08</text>
<rect x="523.0" y="359.8" width="32" height="5.2" fill="#f59e0b"/>
<text class="axis" x="539.0" y="354.8" text-anchor="middle">0.84</text>
<text class="axis" x="520.0" y="389" text-anchor="middle">movies_by_genre_rating</text>
<rect x="685.0" y="323.8" width="32" height="41.2" fill="#2563eb"/>
<text class="axis" x="701.0" y="318.8" text-anchor="middle">6.64</text>
<rect x="723.0" y="351.4" width="32" height="13.6" fill="#f59e0b"/>
<text class="axis" x="739.0" y="346.4" text-anchor="middle">2.20</text>
<text class="axis" x="720.0" y="389" text-anchor="middle">directors_by_genre</text>
<rect x="690" y="40" width="14" height="14" fill="#2563eb"/><text class="axis" x="710" y="52">Neo4j p95</text>
<rect x="790" y="40" width="14" height="14" fill="#f59e0b"/><text class="axis" x="810" y="52">SQLite p95</text>
</svg>